# xmcd CD database file
#
# Track frame offsets:
#	150
#	19912
#	46412
#	77087
#	97687
#	119037
#	141912
#	167837
#	194737
#	228262
#
# Disc length: 3306 seconds
#
# Revision: 0
# Processed by: cddbd v1.5.2PL0 Copyright (c) Steve Scherf et al.
# Submitted via: CDex 1.70beta2
#
DISCID=850ce80a
DTITLE=Jaume, Andre - Musique pour 8:1'oc
DYEAR=1981
DGENRE=Jazz
TTITLE0=blue note
TTITLE1=barquerroute
TTITLE2=l'oc
TTITLE3=clin d'oeil
TTITLE4=theme for joe
TTITLE5=cezanne
TTITLE6=ballade
TTITLE7=st. jean
TTITLE8=zazize
TTITLE9=fanfare
EXTD=YEAR: 1981
EXTT0=
EXTT1=
EXTT2=
EXTT3=
EXTT4=
EXTT5=
EXTT6=
EXTT7=
EXTT8=
EXTT9=
PLAYORDER=
